<mxfile host="Electron" agent="Mozilla/5.0 (Macintosh; Intel Mac OS X 10_15_7) AppleWebKit/537.36 (KHTML, like Gecko) draw.io/28.2.5 Chrome/138.0.7204.251 Electron/37.6.1 Safari/537.36" version="28.2.5">
  <diagram name="Page-1" id="q1oDVFS_DTQW528PxvZq">
    <mxGraphModel dx="1113" dy="861" grid="1" gridSize="10" guides="1" tooltips="1" connect="1" arrows="1" fold="1" page="1" pageScale="1" pageWidth="850" pageHeight="1100" math="0" shadow="0">
      <root>
        <mxCell id="0" />
        <mxCell id="1" parent="0" />
        <mxCell id="GsvJVbQxfjzmgrLLpwKA-1" style="rounded=0;orthogonalLoop=1;jettySize=auto;html=1;exitX=1;exitY=0.5;exitDx=0;exitDy=0;entryX=0;entryY=0.5;entryDx=0;entryDy=0;dashed=1;endArrow=open;endFill=0;" edge="1" parent="1" source="GsvJVbQxfjzmgrLLpwKA-5" target="GsvJVbQxfjzmgrLLpwKA-6">
          <mxGeometry relative="1" as="geometry" />
        </mxCell>
        <mxCell id="GsvJVbQxfjzmgrLLpwKA-2" value="&amp;lt;&amp;lt; include &amp;gt;&amp;gt;" style="edgeLabel;html=1;align=center;verticalAlign=middle;resizable=0;points=[];" vertex="1" connectable="0" parent="GsvJVbQxfjzmgrLLpwKA-1">
          <mxGeometry x="0.0216" y="1" relative="1" as="geometry">
            <mxPoint as="offset" />
          </mxGeometry>
        </mxCell>
        <mxCell id="GsvJVbQxfjzmgrLLpwKA-3" style="rounded=0;orthogonalLoop=1;jettySize=auto;html=1;exitX=1;exitY=0.5;exitDx=0;exitDy=0;entryX=0;entryY=0.5;entryDx=0;entryDy=0;dashed=1;endArrow=open;endFill=0;" edge="1" parent="1" source="GsvJVbQxfjzmgrLLpwKA-5" target="GsvJVbQxfjzmgrLLpwKA-7">
          <mxGeometry relative="1" as="geometry" />
        </mxCell>
        <mxCell id="GsvJVbQxfjzmgrLLpwKA-4" value="&amp;lt;&amp;lt; include &amp;gt;&amp;gt;" style="edgeLabel;html=1;align=center;verticalAlign=middle;resizable=0;points=[];" vertex="1" connectable="0" parent="GsvJVbQxfjzmgrLLpwKA-3">
          <mxGeometry x="-0.0018" relative="1" as="geometry">
            <mxPoint y="1" as="offset" />
          </mxGeometry>
        </mxCell>
        <mxCell id="GsvJVbQxfjzmgrLLpwKA-5" value="správa žiadostí" style="ellipse;whiteSpace=wrap;html=1;" vertex="1" parent="1">
          <mxGeometry x="420" y="250" width="140" height="70" as="geometry" />
        </mxCell>
        <mxCell id="GsvJVbQxfjzmgrLLpwKA-6" value="prijať žiadosť" style="ellipse;whiteSpace=wrap;html=1;" vertex="1" parent="1">
          <mxGeometry x="660" y="180" width="140" height="70" as="geometry" />
        </mxCell>
        <mxCell id="GsvJVbQxfjzmgrLLpwKA-7" value="zamietnuť žiadosť" style="ellipse;whiteSpace=wrap;html=1;" vertex="1" parent="1">
          <mxGeometry x="660" y="300" width="140" height="70" as="geometry" />
        </mxCell>
        <mxCell id="GsvJVbQxfjzmgrLLpwKA-8" style="rounded=0;orthogonalLoop=1;jettySize=auto;html=1;entryX=0;entryY=0.5;entryDx=0;entryDy=0;endArrow=none;endFill=0;exitX=1;exitY=0.5;exitDx=0;exitDy=0;startArrow=block;startFill=0;" edge="1" parent="1" source="GsvJVbQxfjzmgrLLpwKA-17" target="GsvJVbQxfjzmgrLLpwKA-5">
          <mxGeometry relative="1" as="geometry">
            <mxPoint x="90" y="400" as="sourcePoint" />
            <mxPoint x="479.9999999999998" y="664.9999999999998" as="targetPoint" />
          </mxGeometry>
        </mxCell>
        <mxCell id="GsvJVbQxfjzmgrLLpwKA-9" value="šofér" style="shape=umlActor;verticalLabelPosition=bottom;verticalAlign=top;html=1;outlineConnect=0;" vertex="1" parent="1">
          <mxGeometry x="40" y="370" width="30" height="60" as="geometry" />
        </mxCell>
        <mxCell id="GsvJVbQxfjzmgrLLpwKA-10" style="rounded=0;orthogonalLoop=1;jettySize=auto;html=1;exitX=1;exitY=0.5;exitDx=0;exitDy=0;entryX=0;entryY=0.5;entryDx=0;entryDy=0;dashed=1;endArrow=open;endFill=0;" edge="1" source="GsvJVbQxfjzmgrLLpwKA-14" target="GsvJVbQxfjzmgrLLpwKA-15" parent="1">
          <mxGeometry relative="1" as="geometry" />
        </mxCell>
        <mxCell id="GsvJVbQxfjzmgrLLpwKA-11" value="&amp;lt;&amp;lt; include &amp;gt;&amp;gt;" style="edgeLabel;html=1;align=center;verticalAlign=middle;resizable=0;points=[];" vertex="1" connectable="0" parent="GsvJVbQxfjzmgrLLpwKA-10">
          <mxGeometry x="0.0216" y="1" relative="1" as="geometry">
            <mxPoint as="offset" />
          </mxGeometry>
        </mxCell>
        <mxCell id="GsvJVbQxfjzmgrLLpwKA-12" style="rounded=0;orthogonalLoop=1;jettySize=auto;html=1;exitX=1;exitY=0.5;exitDx=0;exitDy=0;entryX=0;entryY=0.5;entryDx=0;entryDy=0;dashed=1;endArrow=open;endFill=0;" edge="1" source="GsvJVbQxfjzmgrLLpwKA-14" target="GsvJVbQxfjzmgrLLpwKA-16" parent="1">
          <mxGeometry relative="1" as="geometry" />
        </mxCell>
        <mxCell id="GsvJVbQxfjzmgrLLpwKA-13" value="&amp;lt;&amp;lt; include &amp;gt;&amp;gt;" style="edgeLabel;html=1;align=center;verticalAlign=middle;resizable=0;points=[];" vertex="1" connectable="0" parent="GsvJVbQxfjzmgrLLpwKA-12">
          <mxGeometry x="-0.0018" relative="1" as="geometry">
            <mxPoint y="1" as="offset" />
          </mxGeometry>
        </mxCell>
        <mxCell id="GsvJVbQxfjzmgrLLpwKA-18" style="rounded=0;orthogonalLoop=1;jettySize=auto;html=1;exitX=0;exitY=0.5;exitDx=0;exitDy=0;endArrow=block;endFill=0;entryX=1;entryY=0.5;entryDx=0;entryDy=0;startArrow=none;startFill=0;" edge="1" parent="1" source="GsvJVbQxfjzmgrLLpwKA-14" target="GsvJVbQxfjzmgrLLpwKA-17">
          <mxGeometry relative="1" as="geometry">
            <mxPoint x="360" y="420" as="targetPoint" />
          </mxGeometry>
        </mxCell>
        <mxCell id="GsvJVbQxfjzmgrLLpwKA-14" value="úprava jazdy" style="ellipse;whiteSpace=wrap;html=1;" vertex="1" parent="1">
          <mxGeometry x="420" y="530" width="140" height="70" as="geometry" />
        </mxCell>
        <mxCell id="GsvJVbQxfjzmgrLLpwKA-15" value="zrušiť jazdu" style="ellipse;whiteSpace=wrap;html=1;" vertex="1" parent="1">
          <mxGeometry x="660" y="460" width="140" height="70" as="geometry" />
        </mxCell>
        <mxCell id="GsvJVbQxfjzmgrLLpwKA-16" value="upraviť jazdu" style="ellipse;whiteSpace=wrap;html=1;" vertex="1" parent="1">
          <mxGeometry x="660" y="580" width="140" height="70" as="geometry" />
        </mxCell>
        <mxCell id="GsvJVbQxfjzmgrLLpwKA-19" style="rounded=0;orthogonalLoop=1;jettySize=auto;html=1;exitX=0;exitY=0.5;exitDx=0;exitDy=0;endArrow=none;endFill=0;" edge="1" parent="1" source="GsvJVbQxfjzmgrLLpwKA-17">
          <mxGeometry relative="1" as="geometry">
            <mxPoint x="90" y="399.52631578947376" as="targetPoint" />
          </mxGeometry>
        </mxCell>
        <mxCell id="GsvJVbQxfjzmgrLLpwKA-17" value="jazda" style="ellipse;whiteSpace=wrap;html=1;" vertex="1" parent="1">
          <mxGeometry x="210" y="365" width="140" height="70" as="geometry" />
        </mxCell>
        <mxCell id="GsvJVbQxfjzmgrLLpwKA-21" value="" style="rounded=0;whiteSpace=wrap;html=1;fillColor=none;" vertex="1" parent="1">
          <mxGeometry x="170" y="150" width="660" height="530" as="geometry" />
        </mxCell>
        <mxCell id="GsvJVbQxfjzmgrLLpwKA-22" value="správa jazdy" style="text;html=1;align=center;verticalAlign=middle;resizable=0;points=[];autosize=1;strokeColor=none;fillColor=none;" vertex="1" parent="1">
          <mxGeometry x="180" y="160" width="90" height="30" as="geometry" />
        </mxCell>
      </root>
    </mxGraphModel>
  </diagram>
</mxfile>
